<mxfile host="app.diagrams.net" modified="2023-11-06T08:27:07.521Z" agent="Mozilla/5.0 (Macintosh; Intel Mac OS X 10_15_7) AppleWebKit/537.36 (KHTML, like Gecko) Chrome/118.0.0.0 Safari/537.36" etag="gHeL9m95cDzuCJ61UAP3" version="22.0.8" type="github">
  <diagram name="第 1 页" id="F7O8moViHx2KYAhkfTpn">
    <mxGraphModel dx="2074" dy="1004" grid="1" gridSize="10" guides="1" tooltips="1" connect="1" arrows="1" fold="1" page="1" pageScale="1" pageWidth="4681" pageHeight="3300" math="0" shadow="0">
      <root>
        <mxCell id="0" />
        <mxCell id="1" parent="0" />
        <mxCell id="gTO8nVF3v8nzosP1zxfj-1" value="&lt;font style=&quot;font-size: 18px;&quot;&gt;AdPublishTaskHandler&lt;br&gt;#executePublish&lt;/font&gt;" style="rounded=1;whiteSpace=wrap;html=1;" vertex="1" parent="1">
          <mxGeometry x="450" y="250" width="220" height="90" as="geometry" />
        </mxCell>
        <mxCell id="gTO8nVF3v8nzosP1zxfj-2" value="&lt;font style=&quot;font-size: 18px;&quot;&gt;assemblePublishData&lt;/font&gt;" style="rounded=1;whiteSpace=wrap;html=1;" vertex="1" parent="1">
          <mxGeometry x="465" y="430" width="190" height="70" as="geometry" />
        </mxCell>
        <mxCell id="gTO8nVF3v8nzosP1zxfj-3" value="&lt;font style=&quot;font-size: 18px;&quot;&gt;doPublish&lt;/font&gt;" style="rounded=1;whiteSpace=wrap;html=1;" vertex="1" parent="1">
          <mxGeometry x="500" y="590" width="120" height="60" as="geometry" />
        </mxCell>
        <mxCell id="gTO8nVF3v8nzosP1zxfj-4" value="doPublishAdgroup&lt;br&gt;(三个实现类)" style="rounded=1;whiteSpace=wrap;html=1;" vertex="1" parent="1">
          <mxGeometry x="680" y="870" width="120" height="60" as="geometry" />
        </mxCell>
        <mxCell id="gTO8nVF3v8nzosP1zxfj-5" value="doPublishKeyword&lt;br&gt;(原直通车场景)" style="rounded=1;whiteSpace=wrap;html=1;" vertex="1" parent="1">
          <mxGeometry x="880" y="870" width="120" height="60" as="geometry" />
        </mxCell>
        <mxCell id="gTO8nVF3v8nzosP1zxfj-6" value="更新计划推广状态" style="rounded=1;whiteSpace=wrap;html=1;" vertex="1" parent="1">
          <mxGeometry x="1090" y="870" width="120" height="60" as="geometry" />
        </mxCell>
        <mxCell id="gTO8nVF3v8nzosP1zxfj-15" value="" style="edgeStyle=orthogonalEdgeStyle;rounded=0;orthogonalLoop=1;jettySize=auto;html=1;" edge="1" parent="1" source="gTO8nVF3v8nzosP1zxfj-7" target="gTO8nVF3v8nzosP1zxfj-8">
          <mxGeometry relative="1" as="geometry" />
        </mxCell>
        <mxCell id="gTO8nVF3v8nzosP1zxfj-7" value="doPublishCampaign" style="rounded=1;whiteSpace=wrap;html=1;" vertex="1" parent="1">
          <mxGeometry x="680" y="630" width="120" height="60" as="geometry" />
        </mxCell>
        <mxCell id="gTO8nVF3v8nzosP1zxfj-12" value="" style="edgeStyle=orthogonalEdgeStyle;rounded=0;orthogonalLoop=1;jettySize=auto;html=1;entryX=0;entryY=0.5;entryDx=0;entryDy=0;" edge="1" parent="1" source="gTO8nVF3v8nzosP1zxfj-8" target="gTO8nVF3v8nzosP1zxfj-9">
          <mxGeometry relative="1" as="geometry" />
        </mxCell>
        <mxCell id="gTO8nVF3v8nzosP1zxfj-13" value="当前没有存在的bp计划" style="edgeLabel;html=1;align=center;verticalAlign=middle;resizable=0;points=[];" vertex="1" connectable="0" parent="gTO8nVF3v8nzosP1zxfj-12">
          <mxGeometry x="-0.0444" y="4" relative="1" as="geometry">
            <mxPoint as="offset" />
          </mxGeometry>
        </mxCell>
        <mxCell id="gTO8nVF3v8nzosP1zxfj-8" value="计划变更" style="rounded=1;whiteSpace=wrap;html=1;" vertex="1" parent="1">
          <mxGeometry x="880" y="630" width="120" height="60" as="geometry" />
        </mxCell>
        <mxCell id="gTO8nVF3v8nzosP1zxfj-14" value="" style="edgeStyle=orthogonalEdgeStyle;rounded=0;orthogonalLoop=1;jettySize=auto;html=1;" edge="1" parent="1" source="gTO8nVF3v8nzosP1zxfj-9" target="gTO8nVF3v8nzosP1zxfj-10">
          <mxGeometry relative="1" as="geometry" />
        </mxCell>
        <mxCell id="gTO8nVF3v8nzosP1zxfj-9" value="计划复用" style="rounded=1;whiteSpace=wrap;html=1;" vertex="1" parent="1">
          <mxGeometry x="1240" y="630" width="120" height="60" as="geometry" />
        </mxCell>
        <mxCell id="gTO8nVF3v8nzosP1zxfj-10" value="计划新增" style="rounded=1;whiteSpace=wrap;html=1;" vertex="1" parent="1">
          <mxGeometry x="1430" y="630" width="120" height="60" as="geometry" />
        </mxCell>
      </root>
    </mxGraphModel>
  </diagram>
</mxfile>
